<svg width="1967" height="1967" viewBox="0 0 1967 1967" fill="none" xmlns="http://www.w3.org/2000/svg">
<path opacity="0.2" d="M1372.22 983.982C1372.22 1199.26 1197.7 1373.77 982.43 1373.77C767.157 1373.77 592.644 1199.26 592.644 983.982C592.644 768.708 767.157 594.194 982.43 594.194C1197.7 594.194 1372.22 768.708 1372.22 983.982Z" stroke="white" stroke-width="0.975687"/>
<path opacity="0.2" d="M1282.52 983.979C1282.52 1149.74 1148.15 1284.12 982.386 1284.12C816.626 1284.12 682.251 1149.74 682.251 983.979C682.251 818.218 816.626 683.842 982.386 683.842C1148.15 683.842 1282.52 818.218 1282.52 983.979Z" stroke="white" stroke-width="0.751279"/>
<path opacity="0.2" d="M1507.7 983.005C1507.7 1270.42 1274.71 1503.41 987.297 1503.41C699.885 1503.41 466.891 1270.42 466.891 983.005C466.891 695.592 699.885 462.597 987.297 462.597C1274.71 462.597 1507.7 695.592 1507.7 983.005Z" stroke="white" stroke-width="1.21961"/>
<circle opacity="0.2" cx="987.5" cy="982.994" r="726.39" stroke="white" stroke-width="1.21961"/>
<path opacity="0.2" d="M1927.25 983.003C1927.25 1502.13 1506.42 1922.96 987.295 1922.96C468.175 1922.96 47.3442 1502.13 47.3442 983.003C47.3442 463.881 468.175 43.0493 987.295 43.0493C1506.42 43.0493 1927.25 463.881 1927.25 983.003Z" stroke="white" stroke-width="1.21961"/>
<path opacity="0.2" d="M1196.77 983.981C1196.77 1102.38 1100.79 1198.36 982.389 1198.36C863.989 1198.36 768.007 1102.38 768.007 983.981C768.007 865.58 863.989 769.597 982.389 769.597C1100.79 769.597 1196.77 865.58 1196.77 983.981Z" stroke="white" stroke-width="0.536628"/>
<path d="M973.641 759.564H993.154V769.321C993.154 774.71 988.786 779.078 983.397 779.078C978.009 779.078 973.641 774.71 973.641 769.321V759.564Z" fill="#18C8FF"/>
<path d="M973.641 1196.67C973.641 1191.28 978.009 1186.92 983.397 1186.92C988.786 1186.92 993.154 1191.28 993.154 1196.67V1206.43H973.641V1196.67Z" fill="#18C8FF"/>
<path d="M1206.81 973.233L1206.81 992.747L1197.06 992.747C1191.67 992.747 1187.3 988.379 1187.3 982.99C1187.3 977.602 1191.67 973.233 1197.06 973.233L1206.81 973.233Z" fill="#57E572"/>
<path d="M769.716 973.233C775.104 973.233 779.473 977.602 779.473 982.99C779.473 988.379 775.104 992.747 769.716 992.747L759.959 992.747L759.959 973.233L769.716 973.233Z" fill="#6E3BFF"/>
<path d="M1125.23 831.91C1125.23 826.798 1129.37 822.653 1134.48 822.653C1139.6 822.653 1143.74 826.798 1143.74 831.91V841.167H1125.23V831.91Z" stroke="#6E3BFF"/>
<path d="M823.039 1124.83H841.553V1134.08C841.553 1139.2 837.408 1143.34 832.296 1143.34C827.183 1143.34 823.039 1139.2 823.039 1134.08V1124.83Z" stroke="#FF7A19"/>
<path d="M1125.23 1134.08C1125.23 1128.97 1129.37 1124.83 1134.48 1124.83C1139.6 1124.83 1143.74 1128.97 1143.74 1134.08V1143.34H1125.23V1134.08Z" stroke="#FF7A19"/>
<path d="M841.574 841.173L823.061 841.173L823.061 831.916C823.061 826.804 827.205 822.659 832.317 822.659C837.43 822.659 841.574 826.804 841.574 831.916L841.574 841.173Z" stroke="#6E3BFF"/>
<rect width="21.4651" height="21.4651" rx="10.7325" transform="matrix(0.927184 -0.374608 0.374606 0.927184 857.016 699.38)" fill="#6E3BFF"/>
<rect width="21.4651" height="21.4651" rx="10.7325" transform="matrix(0.927184 -0.374608 0.374606 0.927184 1081.83 1255.73)" fill="#57E572"/>
<rect width="21.4651" height="21.4651" rx="10.7325" transform="matrix(0.374606 0.927184 -0.927184 0.374608 1267.49 857.129)" fill="#18C8FF"/>
<rect width="21.4651" height="21.4651" rx="10.7325" transform="matrix(0.374606 0.927184 -0.927184 0.374608 711.129 1081.91)" fill="#18C8FF"/>
<rect width="21.4651" height="21.4651" rx="10.7326" transform="matrix(0.920503 0.390732 -0.390731 0.920506 1094.93 693.24)" fill="#FFCB11"/>
<rect width="21.4651" height="21.4651" rx="10.7326" transform="matrix(0.920503 0.390732 -0.390731 0.920506 860.484 1245.59)" fill="#FF7A19"/>
<rect width="21.4651" height="21.4651" rx="10.7326" transform="matrix(-0.390731 0.920506 -0.920503 -0.390732 1273.62 1095.03)" fill="#6E3BFF"/>
<rect width="21.4651" height="21.4651" rx="10.7326" transform="matrix(-0.390731 0.920506 -0.920503 -0.390732 721.289 860.577)" fill="#FF7A19"/>
<ellipse cx="983.332" cy="594.671" rx="12.6839" ry="12.684" fill="#FFCB11"/>
<ellipse cx="982.879" cy="1372.3" rx="12.6839" ry="12.684" fill="#FF7A19"/>
<ellipse cx="1371.72" cy="983.49" rx="12.684" ry="12.6839" transform="rotate(90 1371.72 983.49)" fill="#6E3BFF"/>
<ellipse cx="594.105" cy="983.49" rx="12.684" ry="12.6839" transform="rotate(90 594.105 983.49)" fill="#FF7A19"/>
<circle cx="12.6839" cy="12.6839" r="12.6839" transform="matrix(0.707106 0.707108 -0.707106 0.707108 1257.82 690.618)" fill="#18C8FF"/>
<circle cx="12.6839" cy="12.6839" r="12.6839" transform="matrix(0.707106 0.707108 -0.707106 0.707108 707.949 1240.48)" fill="#18C8FF"/>
<circle cx="12.6839" cy="12.6839" r="12.6839" transform="matrix(-0.707106 0.707108 -0.707105 -0.707108 1275.81 1258.41)" fill="#57E572"/>
<circle cx="12.6839" cy="12.6839" r="12.6839" transform="matrix(-0.707106 0.707108 -0.707105 -0.707108 725.918 708.543)" fill="#6E3BFF"/>
<path d="M960.73 440.121H1006.17V462.841C1006.17 475.389 995.999 485.562 983.451 485.562C970.903 485.562 960.73 475.389 960.73 462.841V440.121Z" stroke="#18C8FF" stroke-width="2"/>
<path d="M960.73 1501.79C960.73 1489.24 970.903 1479.07 983.451 1479.07C995.999 1479.07 1006.17 1489.24 1006.17 1501.79V1524.51H960.73V1501.79Z" stroke="#18C8FF" stroke-width="2"/>
<path d="M1525.65 959.597L1525.65 1005.04L1502.93 1005.04C1490.38 1005.04 1480.21 994.865 1480.21 982.317C1480.21 969.769 1490.38 959.597 1502.93 959.597L1525.65 959.597Z" stroke="#57E572" stroke-width="2"/>
<path d="M463.983 959.597C476.531 959.597 486.703 969.769 486.703 982.317C486.703 994.865 476.531 1005.04 463.983 1005.04L441.263 1005.04L441.263 959.597L463.983 959.597Z" stroke="#6E3BFF" stroke-width="2"/>
<path d="M1328.07 614.987C1328.07 602.439 1338.24 592.267 1350.79 592.267C1363.33 592.267 1373.51 602.439 1373.51 614.987V637.707H1328.07V614.987Z" stroke="#6E3BFF" stroke-width="2"/>
<path d="M592.395 1325.92H639.835V1349.64C639.835 1362.74 629.215 1373.36 616.115 1373.36C603.014 1373.36 592.395 1362.74 592.395 1349.64V1325.92Z" fill="#FF7A19"/>
<path d="M1327.07 1349.64C1327.07 1336.54 1337.69 1325.92 1350.79 1325.92C1363.89 1325.92 1374.51 1336.54 1374.51 1349.64V1373.36H1327.07V1349.64Z" fill="#FF7A19"/>
<path d="M639.859 638.709L592.419 638.709L592.419 614.989C592.419 601.888 603.039 591.268 616.139 591.268C629.239 591.268 639.859 601.888 639.859 614.989L639.859 638.709Z" fill="#FFCB11"/>
<rect width="52.1845" height="52.1846" rx="26.0922" transform="matrix(0.927184 -0.374608 0.374606 0.927184 676.289 292.792)" fill="#6E3BFF"/>
<rect width="52.1845" height="52.1846" rx="26.0922" transform="matrix(0.927184 -0.374608 0.374606 0.927184 1222.79 1645.37)" fill="#57E572"/>
<rect x="-0.552578" y="1.30179" width="50.1846" height="50.1845" rx="25.0922" transform="matrix(0.374606 0.927184 -0.927184 0.374608 1675.08 677.618)" stroke="#18C8FF" stroke-width="2"/>
<rect x="-0.552578" y="1.30179" width="50.1846" height="50.1845" rx="25.0922" transform="matrix(0.374606 0.927184 -0.927184 0.374608 322.483 1224.1)" stroke="#18C8FF" stroke-width="2"/>
<rect width="52.1845" height="52.1845" rx="26.0923" transform="matrix(0.920503 0.390732 -0.390731 0.920506 1254.67 277.869)" fill="#FFCB11"/>
<rect width="52.1845" height="52.1845" rx="26.0923" transform="matrix(0.920503 0.390732 -0.390731 0.920506 684.684 1620.7)" fill="#FF7A19"/>
<rect width="52.1846" height="52.1845" rx="26.0923" transform="matrix(-0.390731 0.920506 -0.920503 -0.390732 1689.13 1254.68)" fill="#6E3BFF"/>
<rect width="52.1846" height="52.1845" rx="26.0923" transform="matrix(-0.390731 0.920506 -0.920503 -0.390732 346.305 684.678)" fill="#FF7A19"/>
<ellipse cx="983.489" cy="38.2465" rx="30.8363" ry="30.8364" fill="#FFCB11"/>
<ellipse cx="982.27" cy="1928.75" rx="30.8363" ry="30.8364" fill="#FF7A19"/>
<ellipse cx="1927.49" cy="983.491" rx="30.8364" ry="30.8363" transform="rotate(90 1927.49 983.491)" fill="#6E3BFF"/>
<ellipse cx="36.984" cy="983.491" rx="30.8364" ry="30.8363" transform="rotate(90 36.984 983.491)" fill="#FF7A19"/>
<circle cx="30.8363" cy="30.8363" r="30.8363" transform="matrix(0.707106 0.707108 -0.707106 0.707108 1650.65 271.493)" fill="#18C8FF"/>
<circle cx="30.8363" cy="30.8363" r="30.8363" transform="matrix(0.707106 0.707108 -0.707106 0.707108 313.871 1608.29)" fill="#18C8FF"/>
<circle cx="30.8363" cy="30.8363" r="30.8363" transform="matrix(-0.707106 0.707108 -0.707105 -0.707108 1694.24 1651.89)" fill="#57E572"/>
<circle cx="30.8363" cy="30.8363" r="30.8363" transform="matrix(-0.707106 0.707108 -0.707105 -0.707108 357.457 315.112)" fill="#6E3BFF"/>
</svg>
