<svg width="24" height="20" viewBox="0 0 24 20" fill="none" xmlns="http://www.w3.org/2000/svg">
<path d="M21.5331 5.10908C21.5483 5.32227 21.5483 5.53551 21.5483 5.74869C21.5483 12.2512 16.5991 19.7437 7.55333 19.7437C4.7665 19.7437 2.17768 18.9365 0 17.5356C0.395955 17.5812 0.776628 17.5964 1.18782 17.5964C3.48728 17.5964 5.60407 16.8198 7.29444 15.4949C5.13199 15.4492 3.31979 14.033 2.69542 12.0837C3.00001 12.1294 3.30456 12.1599 3.62439 12.1599C4.066 12.1599 4.50766 12.0989 4.9188 11.9924C2.66499 11.5355 0.974582 9.5558 0.974582 7.16494V7.10404C1.62938 7.46953 2.39087 7.69795 3.19792 7.72837C1.87304 6.84511 1.00505 5.33751 1.00505 3.63191C1.00505 2.71821 1.24866 1.88065 1.67508 1.14968C4.09642 4.13445 7.73605 6.08367 11.8172 6.2969C11.7411 5.93141 11.6954 5.55074 11.6954 5.17002C11.6954 2.45932 13.8883 0.251221 16.6142 0.251221C18.0304 0.251221 19.3096 0.845129 20.2081 1.80452C21.3198 1.59134 22.3858 1.18015 23.33 0.616707C22.9644 1.75887 22.1878 2.71826 21.1675 3.32736C22.1574 3.22081 23.1168 2.94664 24 2.56596C23.3301 3.54055 22.4924 4.40853 21.5331 5.10908Z" fill="white"/>
</svg>
