<svg xmlns="http://www.w3.org/2000/svg" viewBox="0 0 480.29 480.29"><defs><style>.cls-1{fill:#fff;}.cls-2{fill:#231f20;}</style></defs><title>wave1</title><g id="Layer_2" data-name="Layer 2"><g id="ARTBOARD_1" data-name="ARTBOARD 1"><path class="cls-1" d="M400.5,452.19c-14.55,0-39.44-20.58-63.61-40.56-25.44-21-51.75-42.77-63-37.53-10.91,5.1-12.76,16.58-14.55,27.68-2,12.57-3.94,24.43-19.23,24.43-6.69,0-16-10.44-26.79-22.54-13.54-15.19-28.88-32.41-41.3-30.61-18.9,2.73-36.93,17.81-52.84,31.11-19.07,15.95-35.55,29.73-47.73,17.44-11.1-11.22,2-46.15,14.64-79.94,11.3-30.17,23-61.36,16.65-73.87C95.21,252.89,83,243.07,71.28,233.58c-14.72-11.88-28.63-23.11-28.63-42.31,0-33.26,20.19-35.4,43.57-37.88,16.38-1.74,34.94-3.71,50.79-16.11,11.29-8.85,22.08-20.36,33.51-32.55,22-23.44,44.7-47.69,74.34-56.57,22.31-6.68,47.82-2,68.24,12.43,26.75,19,42.53,52.1,44.46,93.32.92,19.9,16.64,30,33.27,40.75,17.22,11.11,35,22.58,35,45.85,0,7.05-8.58,14-18.52,21.95-13.9,11.19-31.21,25.12-32.46,45.17-1.67,26.7,11.36,56.77,22.85,83.3,12.64,29.18,22.63,52.23,8.25,60A11.38,11.38,0,0,1,400.5,452.19Zm-122.65-80c13.07,0,35.81,18.8,59.73,38.58s48.8,40.33,62.82,40.33a10.58,10.58,0,0,0,5.06-1.16c13.5-7.29,3.69-29.94-8.73-58.61-11.54-26.64-24.62-56.84-22.94-83.79,1.28-20.54,18.79-34.63,32.86-45.95,9.72-7.82,18.12-14.58,18.12-21.11,0-22.68-17.55-34-34.52-44.94-16.14-10.4-32.82-21.16-33.77-41.61-1.91-40.88-17.54-73.72-44-92.48-20.15-14.28-45.31-18.87-67.3-12.28-29.36,8.8-52,32.93-73.86,56.27-11.46,12.22-22.27,23.76-33.64,32.66-16.08,12.59-34.81,14.58-51.33,16.34C62.53,157,43.73,159,43.73,191.27c0,18.69,13.08,29.24,28.23,41.47,11.85,9.56,24.11,19.45,31.77,34.58,6.56,12.92-4.69,42.95-16.6,74.73-12.54,33.47-25.5,68.07-14.88,78.8,11.48,11.58,27.6-1.9,46.27-17.51,16-13.39,34.17-28.57,53.37-31.35,13-1.86,28.55,15.57,42.27,31,10.17,11.41,19.78,22.18,26,22.18,14.37,0,16.13-10.9,18.16-23.52,1.75-10.85,3.73-23.15,15.16-28.49A10.29,10.29,0,0,1,277.85,372.22Z"/><path class="cls-1" d="M396.35,446.36c-14.27,0-38.18-19.15-61.4-37.75-24.62-19.72-50.09-40.12-61.27-35-10.57,4.86-12.56,15.77-14.48,26.33C257,412,255,423.3,240.14,423.3c-6.69,0-15.88-10.06-26.51-21.71-13.12-14.37-28-30.68-40-29.06C155.37,375,138,389,122.6,401.43c-18.66,15.05-34.77,28.05-46.76,16-11-11.07,1.08-44.89,12.81-77.59,10.4-29,21.15-59,15-71.31-7.25-14.38-18.8-24-30-33.25-14.14-11.74-27.49-22.82-27.49-41.56,0-32.81,19.72-35.56,42.55-38.75,15.66-2.18,33.41-4.66,48.68-16.75,10.7-8.52,21-19.31,31.92-30.74C191.59,84.15,214.63,60,244.62,51.41h0C267.23,45,292,49.57,312.5,64.09c26.16,18.5,41.92,50.63,44.38,90.46,1.19,19.32,16.26,29.48,32.21,40.23,16.64,11.22,33.84,22.82,33.84,45.73,0,7-8.28,13.89-17.88,21.85-13.16,10.91-29.53,24.49-30.82,43.76C372.51,331.76,384.47,360.57,395,386c11.86,28.59,21.24,51.17,7.05,59A11.68,11.68,0,0,1,396.35,446.36ZM277.74,371.73c12.9,0,34.83,17.57,57.89,36,26.41,21.16,53.73,43,65.92,36.29,13.33-7.36,4.13-29.55-7.53-57.65-10.6-25.53-22.61-54.47-20.87-80.36,1.32-19.74,17.89-33.48,31.21-44.52,9.39-7.78,17.49-14.51,17.49-21,0-22.33-17-33.77-33.36-44.83C373,185.25,357,174.47,355.8,154.62c-2.44-39.5-18-71.34-43.92-89.64-20.27-14.33-44.67-18.9-67-12.53C215.21,61,192.27,85,170.09,108.24c-10.94,11.45-21.27,22.27-32,30.84-15.5,12.27-33.4,14.77-49.2,17-23.25,3.25-41.62,5.81-41.62,37.68,0,18.23,12.56,28.66,27.1,40.73,11.26,9.35,22.91,19,30.25,33.6,6.39,12.76-4,41.61-14.92,72.16C78.05,372.6,66,406.09,76.61,416.68c11.29,11.34,27.06-1.37,45.31-16.1,15.47-12.48,33-26.62,51.52-29.13,12.62-1.68,27.69,14.84,41,29.41,10,11,19.5,21.35,25.71,21.35,13.92,0,15.81-10.4,18-22.45,1.88-10.33,4-22,15.08-27.12A10.71,10.71,0,0,1,277.74,371.73Z"/><path class="cls-1" d="M392.17,440.55c-14,0-36.91-17.73-59.17-35-23.81-18.42-48.42-37.47-59.57-32.44-10.22,4.61-12.34,15-14.39,25-2.34,11.44-4.55,22.25-18.9,22.25-6.69,0-15.74-9.67-26.22-20.87-12.71-13.58-27.11-28.94-38.8-27.53-17.57,2.16-34.38,15.21-49.21,26.72C107.7,412.83,92,425,80.2,413.28c-11-10.93.18-43.61,11-75.2,9.52-27.84,19.36-56.62,13.3-68.8C97.58,255.39,86.6,246,76,236.94c-13.54-11.57-26.32-22.5-26.32-40.75,0-32.36,19.24-35.72,41.52-39.62,15-2.61,31.9-5.57,46.58-17.39,10.15-8.18,20-18.29,30.4-29C190.73,87,214.06,63,244.38,54.66h0c22.56-6.13,47.17-1.42,67.52,12.92,25.58,18,41.31,49.15,44.3,87.61,1.45,18.74,15.87,28.92,31.14,39.7C403.4,206.22,420,218,420,240.51c0,7-8,13.84-17.23,21.75-12.42,10.63-27.87,23.86-29.19,42.35-1.78,24.57,9.13,52.13,18.75,76.45,10.64,26.9,19.83,50.13,5.83,58A12,12,0,0,1,392.17,440.55ZM277.64,371.24c12.72,0,33.83,16.33,56,33.49,25.56,19.78,52,40.23,64,33.43,13.18-7.45,4.58-29.18-6.31-56.7-9.66-24.42-20.61-52.11-18.82-76.93,1.35-18.94,17-32.33,29.57-43.09,9-7.74,16.85-14.43,16.85-20.93,0-22-16.37-33.56-32.21-44.74-14.8-10.45-30.11-21.25-31.6-40.49-3-38.14-18.53-69-43.84-86.81C291.2,54.31,266.92,49.66,244.67,55.7c-30,8.23-53.27,32.13-75.73,55.23-10.43,10.74-20.29,20.88-30.5,29.09-14.89,12-32,15-47.07,17.62-22.69,4-40.62,7.1-40.62,38.55,0,17.75,12,28,25.94,39.92,10.7,9.15,21.76,18.6,28.76,32.69,6.26,12.59-3.22,40.29-13.25,69.63C81.51,369.71,70.45,402.06,81,412.52c11.09,11.08,26.47-.86,44.28-14.68,14.94-11.59,31.88-24.74,49.74-26.93,12.24-1.5,26.84,14.1,39.72,27.86,9.88,10.55,19.21,20.53,25.43,20.53,13.47,0,15.5-9.92,17.84-21.39,2-9.8,4.28-20.91,15-25.75A11.13,11.13,0,0,1,277.64,371.24Z"/><path class="cls-1" d="M388,434.74c-13.68,0-35.61-16.32-56.92-32.18-23-17.11-46.76-34.8-57.84-29.89-9.88,4.37-12.13,14.16-14.31,23.63-2.49,10.88-4.86,21.16-18.74,21.16-6.69,0-15.61-9.28-25.94-20-12.28-12.77-26.22-27.26-37.55-26-16.89,1.87-33.09,13.9-47.38,24.53-17.78,13.21-33.14,24.63-44.71,13.14-10.94-10.8-.73-42.35,9.14-72.85,8.63-26.66,17.55-54.23,11.64-66.26-6.57-13.36-17-22.52-27-31.38-12.94-11.42-25.17-22.2-25.17-40,0-31.94,18.78-35.93,40.53-40.56,14.23-3,30.36-6.46,44.45-18C147.67,132.35,157,123,166.79,113c22.91-23.15,46.6-47.09,77.36-55.11h0c22.51-5.8,47-1,67.15,13.16,25,17.56,40.71,47.67,44.22,84.76C357.23,174,371,184.18,385.59,195c15.49,11.46,31.51,23.32,31.51,45.54,0,7-7.69,13.78-16.58,21.66-11.69,10.34-26.23,23.21-27.57,40.93-1.82,23.5,8,49.82,16.74,73,9.87,26.33,18.4,49.07,4.58,57.06A12.39,12.39,0,0,1,388,434.74Zm-110.39-64c12.53,0,32.81,15.09,54.12,30.95,24.71,18.39,50.27,37.41,62.05,30.55,13-7.53,4.65-29.87-5.05-55.74C379.94,353.19,370,326.76,371.87,303c1.38-18.16,16.1-31.19,27.93-41.66C408.5,253.66,416,247,416,240.51c0-21.68-15.79-33.37-31.07-44.67-14.13-10.46-28.74-21.27-30.5-39.9-3.47-36.78-19-66.61-43.77-84-19.9-14-44.05-18.71-66.25-13h0c-30.47,7.94-54,31.78-76.86,54.83-9.85,9.95-19.16,19.36-28.73,27.18-14.29,11.67-30.55,15.13-44.91,18.18-22.16,4.72-39.66,8.44-39.66,39.5,0,17.29,11.49,27.43,24.8,39.17,10.12,8.93,20.58,18.16,27.25,31.72,6.11,12.41-2.49,39-11.58,67.06C85,366.8,74.85,398,85.32,408.35c10.91,10.83,25.92-.32,43.31-13.24,14.4-10.71,30.72-22.84,47.9-24.74,11.87-1.32,26,13.37,38.45,26.32,9.74,10.13,18.93,19.69,25.16,19.69,13,0,15.19-9.42,17.69-20.32,2.23-9.73,4.55-19.79,14.92-24.38A11.73,11.73,0,0,1,277.56,370.75Z"/><path class="cls-1" d="M383.7,429c-13.38,0-34.31-14.91-54.65-29.42C306.89,383.74,284,367.4,273,372.19c-9.54,4.14-11.92,13.37-14.22,22.29-2.66,10.32-5.17,20.06-18.59,20.06-6.69,0-15.48-8.87-25.66-19.15-11.86-12-25.31-25.58-36.29-24.48-16.22,1.59-31.8,12.61-45.54,22.35-17.35,12.28-32.34,22.9-43.73,11.7-10.87-10.69-1.64-41.1,7.3-70.5,7.74-25.49,15.74-51.85,10-63.71-6.24-12.84-16-21.77-25.5-30.41-12.35-11.27-24-21.92-24-39.22,0-31.54,18.33-36.19,39.55-41.57,13.51-3.42,28.82-7.3,42.3-18.47,8.85-7.34,17.54-16,26.73-25.1,23.3-23.15,47.39-47.09,78.65-54.82h0c22.46-5.46,46.79-.59,66.77,13.38,24.46,17.1,40.14,46.2,44.16,81.94,2,17.55,15.09,27.75,29,38.54,14.92,11.6,30.36,23.6,30.36,45.49,0,7-7.38,13.73-15.91,21.57-11.53,10.58-24.59,22.57-26,39.51-1.87,22.43,7,47.49,14.76,69.59,9.09,25.77,16.94,48,3.3,56.1A12.74,12.74,0,0,1,383.7,429Zm-106.2-58.7c12.33,0,31.76,13.85,52.18,28.4,23.87,17,48.57,34.61,60.14,27.7,12.87-7.63,5.16-29.49-3.77-54.81-7.83-22.2-16.71-47.37-14.82-70,1.41-17.36,15.21-30,26.31-40.22,8.34-7.66,15.56-14.28,15.56-20.77,0-21.36-15.23-33.19-30-44.63-13.45-10.46-27.37-21.28-29.39-39.28-4-35.43-19.5-64.26-43.7-81.17-19.72-13.79-43.74-18.61-65.89-13.22h0c-31,7.66-54.95,31.49-78.15,54.54-9.21,9.15-17.91,17.79-26.8,25.17-13.67,11.32-29.1,15.23-42.72,18.68-21.64,5.49-38.74,9.82-38.74,40.52,0,16.82,11,26.83,23.66,38.42,9.54,8.71,19.41,17.71,25.75,30.74,6,12.24-1.76,37.62-9.92,64.49-8.84,29.1-18,59.19-7.57,69.42,10.75,10.56,25.39.19,42.35-11.82,13.85-9.81,29.55-20.92,46.05-22.54,11.49-1.13,25.14,12.65,37.17,24.8,9.59,9.68,18.65,18.83,24.89,18.83,12.58,0,14.88-8.92,17.54-19.25,2.37-9.17,4.82-18.66,14.84-23A12.35,12.35,0,0,1,277.5,370.25Z"/><path class="cls-1" d="M379.41,423.16c-13.06,0-33-13.52-52.35-26.67-21.33-14.47-43.38-29.44-54.36-24.78-9.18,3.91-11.69,12.57-14.12,21-2.82,9.75-5.49,19-18.44,19-6.7,0-15.77-8.87-25.38-18.27-11.44-11.19-24.4-23.89-35-23-15.54,1.31-30.49,11.34-43.69,20.19-16.93,11.36-31.55,21.17-42.75,10.24-10.82-10.56-2.56-39.85,5.44-68.17,6.86-24.32,14-49.46,8.33-61.14-5.92-12.31-15.11-21-24-29.43-11.76-11.13-22.86-21.64-22.86-38.48,0-31.17,17.89-36.48,38.61-42.63,12.77-3.8,27.25-8.09,40.11-18.91,8.13-6.85,16.16-14.71,24.65-23,23.73-23.23,48.26-47.24,80.11-54.61l.13.53-.13-.53C266,59.24,290.15,64.16,310,77.89c24,16.63,39.68,44.76,44.21,79.23,2.23,16.95,14.69,27.14,27.88,37.93,14.37,11.74,29.22,23.88,29.22,45.46,0,7-7.06,13.69-15.23,21.49-10.77,10.27-23,21.92-24.36,38.08-1.92,21.37,5.91,45.15,12.81,66.14,8.28,25.19,15.43,46.94,2,55.14A13.32,13.32,0,0,1,379.41,423.16ZM277.47,369.75c12.12,0,30.69,12.6,50.2,25.85,23,15.63,46.85,31.8,58.24,24.84,12.71-7.76,5.68-29.13-2.46-53.88-6.93-21.09-14.79-45-12.86-66.58,1.43-16.56,14.33-28.87,24.69-38.76,8-7.63,14.9-14.22,14.9-20.71,0-21.06-14.65-33-28.82-44.63-12.78-10.44-26-21.25-28.28-38.62-4.49-34.16-20-62-43.75-78.48-19.55-13.56-43.39-18.41-65.41-13.32-31.56,7.31-56,31.21-79.6,54.33-8.51,8.33-16.55,16.2-24.72,23.07-13,11-27.62,15.3-40.49,19.12-21.14,6.28-37.84,11.24-37.84,41.6,0,16.37,10.94,26.73,22.52,37.69,9,8.48,18.23,17.26,24.24,29.75,5.8,12.06-1,36.27-8.27,61.9-7.91,28-16.09,57-5.73,67.1,10.58,10.32,24.86.74,41.4-10.36,13.3-8.92,28.38-19,44.2-20.37,11.1-.94,24.28,11.93,35.89,23.29,9.44,9.24,18.36,18,24.62,18,12.14,0,14.58-8.42,17.4-18.18,2.5-8.62,5.08-17.53,14.74-21.64A13.22,13.22,0,0,1,277.47,369.75Z"/><path class="cls-1" d="M375.05,417.41c-12.73,0-31.62-12.14-50-24-20.48-13.16-41.66-26.77-52.58-22.22-8.83,3.67-11.47,11.77-14,19.61-3,9.18-5.82,17.85-18.3,17.85-6.71,0-15.64-8.44-25.1-17.37-11-10.42-23.55-22.23-33.78-21.5-14.86,1-29.19,10.08-41.83,18.06-16.52,10.41-30.78,19.41-41.79,8.75C86.86,386.2,94.15,358,101.2,330.78c6-23.13,12.18-47,6.71-58.56-5.6-11.77-14.19-20.24-22.51-28.43-11.16-11-21.7-21.37-21.7-37.75,0-30.82,17.47-36.83,37.7-43.78,12-4.14,25.66-8.83,37.88-19.27,7.36-6.29,14.64-13.31,22.34-20.74,23.1-22.28,49.28-47.52,81.82-54.59l.11.53-.11-.53c22.24-4.83,46.24.15,65.87,13.66,23.45,16.16,39.14,43.3,44.17,76.43,2.48,16.34,14.83,27,26.77,37.28,13.81,11.9,28.09,24.2,28.09,45.48,0,6.94-6.74,13.65-14.55,21.42-10,10-21.34,21.25-22.77,36.64-1.94,20.29,4.89,42.82,10.91,62.69,7.47,24.62,13.91,45.88.65,54.19A13.9,13.9,0,0,1,375.05,417.41Zm-97.58-48.17c11.88,0,29.58,11.37,48.16,23.31,22.2,14.26,45.16,29,56.37,22,12.57-7.87,6.23-28.77-1.1-53C374.84,341.6,368,319,370,298.47c1.46-15.78,12.95-27.21,23.08-37.3,7.64-7.61,14.23-14.17,14.23-20.66,0-20.78-14.09-32.92-27.71-44.66-12.1-10.42-24.6-21.2-27.14-37.93-5-32.84-20.51-59.72-43.72-75.71-19.37-13.34-43.08-18.26-65-13.49-32.24,7-57.18,31.05-81.29,54.31-7.72,7.44-15,14.47-22.39,20.78-12.38,10.58-26.12,15.3-38.24,19.47-20.66,7.1-37,12.71-37,42.76,0,15.93,10.38,26.15,21.38,37,8.38,8.26,17,16.79,22.72,28.74s-.32,34.9-6.63,59.29c-7,26.95-14.19,54.81-3.86,64.81s24.33,1.28,40.46-8.89c12.75-8,27.2-17.16,42.33-18.22,10.75-.76,22.87,10.7,34.6,21.79,9.3,8.78,18.08,17.08,24.36,17.08,11.7,0,14.28-7.93,17.27-17.11,2.62-8.06,5.34-16.41,14.63-20.27A14,14,0,0,1,277.47,369.24Z"/><path class="cls-1" d="M370.61,411.67c-12.37,0-30.22-10.76-47.61-21.25-19.63-11.83-39.92-24.08-50.78-19.66-8.48,3.45-11.25,11-13.92,18.28-3.16,8.61-6.14,16.75-18.16,16.75-6.72,0-15.51-8-24.83-16.47-10.6-9.65-22.64-20.56-32.52-20-14.17.78-27.87,8.83-39.95,15.94-16.11,9.47-30,17.65-40.84,7.24s-4.43-37.38,1.67-63.56c5.12-21.94,10.41-44.62,5.09-56s-13.27-19.46-21-27.41C77.19,234.69,67.2,224.43,67.2,208.5c0-30.51,16.26-36.92,36.85-45,11.27-4.45,24-9.49,35.61-19.53,6.49-5.63,12.93-11.77,19.75-18.26,23.64-22.5,50.43-48,83.79-54.77,22.15-4.5,46,.55,65.46,13.84,22.94,15.67,38.61,41.82,44.14,73.64,2.72,15.72,14.38,26.32,25.65,36.58,13.26,12.07,27,24.55,27,45.54,0,6.93-6.41,13.62-13.85,21.37-9.25,9.64-19.73,20.57-21.19,35.18-2,19.21,3.88,40.47,9.05,59.23,6.62,24,12.35,44.83-.75,53.25A14.56,14.56,0,0,1,370.61,411.67Zm-93.1-42.93c11.63,0,28.42,10.13,46.05,20.76,21.39,12.89,43.5,26.23,54.54,19.13,12.42-8,6.8-28.41.28-52.06-5.19-18.85-11.08-40.21-9.07-59.62,1.49-15,12.11-26.05,21.48-35.82,7.27-7.58,13.55-14.12,13.55-20.62,0-20.52-13.53-32.83-26.62-44.74-11.41-10.38-23.2-21.11-26-37.19-5.47-31.53-21-57.43-43.68-72.94C288.84,72.51,265.28,67.53,243.42,72l-.11-.53.11.53c-33,6.71-59.73,32.1-83.26,54.49-6.83,6.51-13.28,12.65-19.79,18.3-11.7,10.16-24.57,15.24-35.93,19.71-20.2,8-36.15,14.26-36.15,44,0,15.49,9.83,25.59,20.24,36.3,7.8,8,15.87,16.3,21.21,27.7,5.48,11.67.38,33.52-5,56.66-6,25.88-12.27,52.64-2,62.53s23.81,1.85,39.54-7.39c12.19-7.17,26-15.3,40.44-16.09,10.36-.57,22,10,33.31,20.31,9.15,8.32,17.8,16.18,24.1,16.18,11.26,0,14-7.43,17.14-16,2.76-7.51,5.61-15.27,14.53-18.9A15,15,0,0,1,277.51,368.74Z"/><path class="cls-1" d="M366.08,406c-12,0-28.78-9.41-45.14-18.58-18.77-10.52-38.18-21.39-49-17.11-8.12,3.23-11,10.2-13.8,17-3.33,8-6.48,15.64-18,15.64-6.74,0-15.39-7.56-24.56-15.55-10.67-9.32-21.72-18.95-31.26-18.57-13.47.52-26.53,7.6-38.06,13.85-15.7,8.51-29.26,15.86-39.9,5.71S101,352.14,106.12,327c4.26-20.74,8.66-42.19,3.5-53.33C104.68,263,97.27,255,90.11,247.33c-10-10.74-19.4-20.89-19.4-36.37,0-30.24,15.91-37.38,36-46.41,10.51-4.71,22.41-10.05,33.29-19.66,5.52-4.87,11-10,16.83-15.52,24.26-22.84,51.76-48.74,86.1-55.21C286.18,66,339.11,93,352.11,159c3,15.07,13.92,25.62,24.51,35.81,12.72,12.26,25.88,24.94,25.88,45.67,0,6.94-6.08,13.61-13.13,21.35-8.5,9.31-18.13,19.87-19.63,33.69-2,18.09,2.93,38,7.24,55.64,5.78,23.54,10.76,43.88-2.2,52.44A15.42,15.42,0,0,1,366.08,406ZM277.6,368.22c11.34,0,27.22,8.9,43.87,18.23C342,398,363.33,409.9,374.19,402.73c12.32-8.14,7.42-28.13,1.74-51.28-4.34-17.69-9.25-37.74-7.26-56,1.54-14.17,11.29-24.86,19.9-34.3,6.9-7.57,12.85-14.1,12.85-20.62,0-20.27-13-32.79-25.56-44.89-10.7-10.31-21.78-21-24.81-36.38-12.86-65.36-65.19-92.06-107.88-84l-.1-.53.1.53c-34,6.42-61.41,32.2-85.56,54.94-5.82,5.48-11.32,10.66-16.85,15.54-11,9.72-23,15.1-33.57,19.84-19.77,8.87-35.4,15.88-35.4,45.42,0,15.06,9.29,25,19.12,35.63,7.21,7.78,14.68,15.81,19.69,26.65,5.31,11.46,1.07,32.12-3.42,54-5.09,24.82-10.36,50.49-.08,60.29,10.08,9.6,23.32,2.43,38.65-5.88,11.62-6.31,24.8-13.45,38.53-14,10-.36,21.18,9.39,32,18.84,9,7.86,17.52,15.29,23.85,15.29,10.83,0,13.7-6.94,17-15,2.88-6.95,5.86-14.14,14.4-17.53A16.13,16.13,0,0,1,277.6,368.22Z"/><path class="cls-1" d="M361.43,400.3c-11.58,0-27.28-8.07-42.59-15.93-17.9-9.2-36.4-18.7-47.11-14.56-7.76,3-10.77,9.41-13.69,15.62-3.5,7.46-6.81,14.52-17.9,14.52-6.76,0-15.28-7.1-24.3-14.61-10.23-8.52-20.81-17.31-30-17.13-12.77.27-25.18,6.39-36.14,11.79-15.31,7.54-28.53,14.05-39,4.15-10.7-10.11-6.37-35-2.18-59,3.41-19.54,6.93-39.74,1.94-50.67-4.62-10.12-11.43-17.83-18-25.29-9.39-10.63-18.25-20.67-18.25-35.71,0-30,15.58-37.94,35.31-47.94,9.71-4.93,20.72-10.51,30.89-19.65,4.42-4,8.82-8.07,13.47-12.42,25-23.36,53.32-49.84,88.84-56l.09.53-.09-.53c22.87-4,46.3,1.39,66,15.1,21.51,15,36.27,38.19,42.7,67.16,3.2,14.4,13.43,24.86,23.33,35C387,207.11,399.59,220,399.59,240.51c0,7-5.76,13.61-12.42,21.33-7.75,9-16.55,19.16-18.07,32.2-2,17,2,35.64,5.49,52.11,4.89,23,9.11,42.87-3.7,51.57A16.53,16.53,0,0,1,361.43,400.3Zm-83.67-32.6c11,0,25.93,7.67,41.57,15.7,19.79,10.17,40.25,20.68,50.95,13.42,12.21-8.29,8.06-27.83,3.25-50.45C370,329.83,366,311.08,368,293.92c1.56-13.37,10.46-23.69,18.32-32.79,6.52-7.56,12.15-14.08,12.15-20.62,0-20.07-12.46-32.8-24.51-45.11-10-10.22-20.35-20.79-23.61-35.5-6.37-28.69-21-51.69-42.27-66.5-19.46-13.55-42.61-18.85-65.2-14.92-35.19,6.11-63.4,32.47-88.28,55.73-4.66,4.35-9.06,8.46-13.48,12.44-10.28,9.23-21.36,14.85-31.13,19.8-19.4,9.83-34.72,17.6-34.72,47,0,14.63,8.74,24.52,18,35,6.64,7.51,13.5,15.28,18.18,25.55,5.13,11.24,1.74,30.7-1.85,51.31-4.14,23.78-8.43,48.36,1.85,58.08,9.92,9.37,22.83,3,37.77-4.34,11.06-5.45,23.59-11.62,36.6-11.91,9.6-.19,20.32,8.74,30.7,17.38,8.87,7.39,17.24,14.37,23.61,14.37,10.4,0,13.42-6.44,16.93-13.9,3-6.4,6.1-13,14.27-16.17A17.53,17.53,0,0,1,277.76,367.7Z"/><path class="cls-1" d="M240.14,397c-6.79,0-15.17-6.64-24-13.66-9.76-7.72-19.85-15.71-28.66-15.71h0c-12.06,0-23.82,5.21-34.2,9.77-14.92,6.55-27.81,12.21-38.11,2.56-10.7-10-7.37-33.83-4.15-56.86,2.57-18.31,5.22-37.25.4-48-4.29-9.54-10.49-17-16.5-24.16-8.79-10.54-17.1-20.49-17.1-35.11,0-29.91,15.3-38.63,34.68-49.67,8.89-5.07,19-10.82,28.39-19.42,3.15-2.88,6.34-5.85,9.58-8.87,25.84-24.09,55.14-51.39,92.11-57.27,42.28-6.72,93,18.48,108.26,79.65,3.41,13.7,12.92,24,22.12,34,11.7,12.72,23.8,25.86,23.8,46.18,0,7-5.42,13.62-11.68,21.33-7,8.64-15,18.44-16.53,30.69-2,15.86,1.08,33.22,3.8,48.53,4,22.48,7.42,41.89-5.27,50.74-11.06,7.72-31-1.52-50.3-10.45-17-7.88-34.59-16-45.21-12-7.39,2.79-10.52,8.64-13.55,14.3C254.25,390.52,250.77,397,240.14,397Zm-52.71-30.45c9.19,0,19.42,8.1,29.33,15.94,8.73,6.9,17,13.43,23.38,13.43,10,0,13.16-5.95,16.84-12.84,3.12-5.83,6.34-11.86,14.12-14.79,11-4.16,28.84,4.08,46,12.05,19,8.8,38.67,17.91,49.22,10.55,12.13-8.46,8.74-27.56,4.82-49.67-2.73-15.39-5.82-32.83-3.8-48.85,1.58-12.56,9.64-22.49,16.76-31.24,6.14-7.55,11.44-14.07,11.44-20.65,0-19.9-12-32.88-23.52-45.44-9.29-10.09-18.89-20.53-22.37-34.5-15.07-60.54-65.25-85.49-107-78.84l-.08-.54.08.54c-36.65,5.83-65.81,33-91.55,57-3.24,3-6.43,6-9.58,8.87-9.5,8.69-19.64,14.47-28.59,19.57C93.87,178,78.81,186.61,78.81,215.89c0,14.22,8.19,24,16.85,34.41,6,7.25,12.31,14.74,16.66,24.42,4.94,11,2.39,29.24-.31,48.56-3.19,22.76-6.48,46.29,3.8,55.92,9.79,9.17,22.37,3.64,36.95-2.77,10.47-4.6,22.34-9.81,34.62-9.85Z"/><path class="cls-1" d="M240.14,394.11c-6.82,0-15.08-6.17-23.83-12.7-9.31-7-18.94-14.14-27.39-14.29C177.59,367,167,371,156.71,374.9c-14.56,5.55-27.13,10.35-37.28.93-10.71-9.94-8.39-32.71-6.15-54.72,1.74-17.08,3.54-34.74-1.09-45.21-4-9-9.57-16.1-15-23-8.21-10.46-16-20.34-16-34.55,0-29.86,15.09-39.48,34.18-51.65,8.44-5.38,17.17-10.95,25.77-18.95l5-4.64C173,118,203.45,89.5,242.26,83.91l.08.53-.08-.53A92.48,92.48,0,0,1,307,99c20.8,13.94,35.72,35.38,43.12,62,3.6,13,12.37,23.13,20.85,32.95,11.23,13,22.83,26.44,22.83,46.62,0,7-5.07,13.65-10.93,21.36-6.3,8.29-13.45,17.69-15,29.16-2,14.71.23,30.74,2.19,44.88,3,22,5.67,40.95-6.92,50-10.9,7.82-30.07,0-48.6-7.54-16.1-6.56-32.74-13.34-43.25-9.5-7,2.57-10.27,7.86-13.41,13C254,388.15,250.31,394.11,240.14,394.11Zm-52-28.07h.77c8.81.15,18.58,7.45,28,14.51C225.56,387,233.68,393,240.14,393c9.56,0,12.9-5.45,16.77-11.77,3.23-5.27,6.57-10.72,14-13.42,10.91-4,27.74,2.87,44,9.51,18.26,7.44,37.14,15.14,47.56,7.66,12.06-8.65,9.47-27.33,6.47-48.95-2-14.21-4.2-30.32-2.18-45.18,1.59-11.75,8.82-21.27,15.21-29.66,5.74-7.56,10.71-14.09,10.71-20.71,0-19.78-11.47-33.06-22.57-45.91-8.55-9.92-17.4-20.16-21.08-33.37-7.33-26.36-22.09-47.58-42.68-61.38A91.4,91.4,0,0,0,242.41,85c-38.47,5.54-68.78,33.9-95.52,58.92l-5,4.64c-8.67,8.07-17.84,13.92-25.92,19.07-18.82,12-33.68,21.47-33.68,50.74,0,13.84,7.64,23.57,15.73,33.88,5.46,7,11.11,14.15,15.13,23.23,4.74,10.73,3,27.75,1.18,45.76-2.21,21.75-4.5,44.24,5.81,53.82,9.65,9,21.94,4.27,36.15-1.15C166,370.2,176.9,366,188.16,366Z"/><path class="cls-1" d="M240.14,391.19c-6.87,0-15-5.69-23.63-11.71-8.84-6.19-18-12.58-26.06-12.9-10.59-.41-20.54,2.77-30.16,5.84-14.22,4.53-26.49,8.45-36.5-.75C113,361.79,114.33,340,115.57,319c.94-15.81,1.91-32.17-2.53-42.37-3.62-8.34-8.62-15.16-13.46-21.76-7.63-10.4-14.84-20.23-14.84-34.06,0-29.95,15-40.55,33.87-54,7.49-5.32,15.24-10.81,23-18.13C168,123.65,200.84,92.46,242,87.16c47.74-6.15,91.89,24.45,107.36,74.42,3.77,12.17,11.78,22.09,19.53,31.67,10.78,13.35,21.92,27.14,21.92,47.26,0,7-4.94,14-10.17,21.44-5.59,7.92-11.92,16.89-13.48,27.57-2,13.53-.63,27.57.68,41.15,2.06,21.5,3.85,40.06-8.67,49.31-10.76,7.95-29.17,1.57-47-4.6-15.16-5.25-30.84-10.69-41.22-7-6.65,2.35-10,7.08-13.24,11.66C253.69,385.77,249.86,391.19,240.14,391.19Zm-51.5-25.72c.62,0,1.23,0,1.85,0,8.39.33,17.67,6.82,26.64,13.09,8.48,5.93,16.48,11.52,23,11.52,9.16,0,12.84-5.2,16.73-10.7,3.34-4.71,6.78-9.58,13.76-12.05,10.74-3.81,26.6,1.68,41.93,7,17.54,6.07,35.68,12.36,46,4.75,12-8.88,10.27-27.17,8.23-48.33-1.32-13.65-2.67-27.76-.67-41.42,1.6-10.93,8-20,13.67-28,5.35-7.59,10-14.13,10-20.82,0-19.74-11-33.38-21.68-46.58-7.81-9.66-15.89-19.66-19.72-32-15.32-49.46-59-79.75-106.19-73.67h0c-40.83,5.26-73.56,36.31-99.85,61.26-7.77,7.37-15.55,12.89-23.08,18.22-18.66,13.25-33.41,23.71-33.41,53.1,0,13.47,7.11,23.16,14.63,33.42,4.87,6.65,9.91,13.52,13.59,22,4.53,10.44,3.6,26.19,2.61,42.86-1.23,20.79-2.5,42.28,7.88,51.81,9.54,8.78,21.54,4.95,35.43.52C168.69,368.6,178.52,365.47,188.64,365.47Z"/><path class="cls-1" d="M240.14,388.28c-6.93,0-15-5.21-23.47-10.73-8.36-5.42-17-11-24.7-11.51-9.79-.61-19.06,1.72-28,4-13.89,3.48-25.9,6.5-35.79-2.5-10.83-9.86-10.59-30.64-10.37-50.74.17-15.18.33-29.52-3.88-39.4-3.28-7.7-7.68-14.17-11.93-20.43-7.06-10.38-13.72-20.19-13.72-33.67,0-30.22,14.92-41.94,33.81-56.78a245.35,245.35,0,0,0,19.88-16.84c27.15-26.26,59.5-54.66,99.85-59.24a97.49,97.49,0,0,1,63.41,15c20.1,12.91,35.15,32.56,43.5,56.82,3.89,11.3,11.11,20.88,18.09,30.14,10.39,13.77,21.12,28,21.12,48.16,0,7.09-4.56,14.12-9.39,21.57s-10.42,16.06-12,25.93c-1.94,12.3-1.31,25-.7,37.28,1.05,21.07,2,39.27-10.53,48.78-10.65,8.1-28.36,3.16-45.49-1.62-14.18-4-28.85-8.05-39.06-4.55-6.27,2.15-9.72,6.31-13.05,10.34C253.44,383.4,249.41,388.28,240.14,388.28Zm-51.39-23.42c1.09,0,2.19,0,3.29.1,8,.5,16.74,6.19,25.22,11.69s16.27,10.54,22.88,10.54c8.76,0,12.63-4.68,16.73-9.63,3.42-4.15,7-8.44,13.53-10.69,10.53-3.61,25.36.54,39.7,4.54,16.87,4.71,34.32,9.57,44.54,1.8,12-9.16,11.14-27.1,10.11-47.87-.61-12.33-1.25-25.09.72-37.5,1.59-10.09,7.2-18.73,12.14-26.35,4.74-7.31,9.22-14.21,9.22-21,0-19.8-10.62-33.88-20.9-47.51-7-9.33-14.31-19-18.25-30.44-8.28-24-23.17-43.48-43.07-56.26a96.37,96.37,0,0,0-62.7-14.82l-.06-.53.06.53c-40,4.54-72.19,32.81-99.22,59a245,245,0,0,1-20,16.91c-18.66,14.66-33.4,26.24-33.4,55.93,0,13.15,6.57,22.82,13.53,33.06,4.28,6.3,8.71,12.82,12,20.61,4.3,10.09,4.14,24.54,4,39.84-.22,19.86-.45,40.4,10,49.93,9.46,8.6,21.21,5.66,34.8,2.25C171.72,366.94,180,364.86,188.75,364.86Z"/><path class="cls-1" d="M240.14,385.36c-7,0-15-4.72-23.37-9.72-7.86-4.67-16-9.5-23.27-10.14-9-.79-17.52.72-25.77,2.18-13.07,2.31-25.41,4.5-35.22-4.33-11-9.88-11.82-29.76-12.64-49-.59-13.76-1.15-26.76-5.11-36.26-2.93-7-6.72-13.08-10.38-18.94-6.49-10.42-12.62-20.25-12.62-33.42,0-30.76,15.08-43.79,34.17-60.28,5.32-4.61,10.83-9.36,16.39-14.85,26.27-25.93,58.6-53,99.23-57C287.71,89.14,330.48,117,348,162.84c3.94,10.31,10.33,19.4,16.51,28.2C374.59,205.36,385,220.16,385,240.51c0,7.18-4.18,14.28-8.61,21.79s-8.93,15.16-10.49,24.2c-1.89,11-1.9,22.27-1.91,33.18,0,20.74-.05,38.65-12.58,48.47-10.58,8.3-27.65,4.81-44.15,1.44-13.16-2.69-26.76-5.46-36.75-2.17-5.87,1.94-9.4,5.55-12.81,9C253.21,381,249,385.36,240.14,385.36ZM188.42,364.2c1.71,0,3.43.07,5.18.22,7.52.66,15.76,5.56,23.72,10.29,8.28,4.92,16.1,9.57,22.82,9.57,8.39,0,12.46-4.17,16.78-8.58,3.5-3.58,7.12-7.29,13.24-9.31,10.26-3.38,24-.57,37.3,2.14,16.27,3.32,33.08,6.76,43.27-1.23,12.11-9.5,12.14-27.16,12.16-47.62,0-10.95,0-22.28,1.94-33.36,1.58-9.24,6.39-17.38,10.62-24.57,4.35-7.38,8.46-14.35,8.46-21.24,0-20-10.3-34.67-20.27-48.85-6.22-8.85-12.65-18-16.64-28.43-17.35-45.44-59.7-73-105.34-68.49l-.06-.54.06.54c-40.29,3.94-72.44,30.84-98.58,56.64-5.59,5.51-11.11,10.28-16.45,14.89-18.88,16.32-33.79,29.21-33.79,59.47,0,12.86,6,22.57,12.46,32.84,3.68,5.91,7.49,12,10.46,19.11,4,9.67,4.6,22.76,5.19,36.62.82,19,1.66,38.66,12.29,48.23,9.41,8.48,20.95,6.44,34.3,4.08C174.27,365.43,181.19,364.2,188.42,364.2Z"/><path class="cls-1" d="M240.14,382.44c-7.15,0-15-4.23-23.38-8.7-7.32-3.93-14.89-8-21.73-8.78-8.09-.94-15.83-.2-23.32.52-12.88,1.24-25.05,2.41-34.84-6.3-11.19-10-13.18-29.06-15.1-47.54-1.28-12.24-2.48-23.81-6.16-32.8a147.77,147.77,0,0,0-8.77-17.24c-6-10.52-11.58-20.45-11.58-33.4,0-31.7,15.53-46.32,35.18-64.83,4-3.74,8.1-7.62,12.26-11.81C177,117,208.35,99.62,241.32,96.91l0,.54,0-.54a102.27,102.27,0,0,1,62.17,14.91c19.4,11.88,34.56,29.74,43.84,51.66,3.86,9.12,9.36,17.5,14.67,25.61,9.87,15.06,20.08,30.63,20.08,51.42,0,7.32-3.8,14.52-7.83,22.14-3.67,7-7.47,14.17-9,22.35-1.78,9.54-2.34,19.28-2.88,28.7-1.13,19.7-2.2,38.3-14.87,48.54-10.58,8.56-27.11,6.55-43.09,4.62-12-1.47-24.49-3-34.16.08-5.45,1.73-9,4.78-12.51,7.72C253,378.66,248.57,382.44,240.14,382.44Zm-53.16-19a71,71,0,0,1,8.17.44c7,.82,14.71,4.93,22.12,8.9,8.22,4.41,16,8.58,22.87,8.58,8,0,12.34-3.66,16.9-7.53,3.55-3,7.23-6.13,12.89-7.92,9.89-3.13,22.46-1.6,34.61-.13,15.76,1.91,32,3.89,42.28-4.38,12.3-9.94,13.3-27.47,14.47-47.76.54-9.46,1.1-19.23,2.9-28.84,1.56-8.34,5.39-15.62,9.11-22.65,4-7.5,7.69-14.58,7.69-21.64,0-20.46-10.11-35.9-19.9-50.82-5.34-8.15-10.86-16.58-14.76-25.79-9.19-21.71-24.2-39.4-43.4-51.16A101.3,101.3,0,0,0,241.41,98c-32.71,2.68-63.83,20-97.94,54.33-4.18,4.21-8.3,8.09-12.28,11.84-19.47,18.33-34.84,32.81-34.84,64,0,12.66,5.55,22.48,11.43,32.87a149.76,149.76,0,0,1,8.83,17.36c3.74,9.14,5,20.78,6.23,33.1,1.91,18.27,3.87,37.16,14.75,46.85,9.43,8.39,20.83,7.3,34,6C176.61,363.93,181.72,363.44,187,363.44Z"/><path class="cls-1" d="M240.14,379.52c-7.35,0-15.6-3.91-23.58-7.7-6.72-3.18-13.67-6.48-20-7.4a130.3,130.3,0,0,0-20.49-.93c-12.84.11-25,.21-34.83-8.47-11.58-10.19-14.79-28.72-17.9-46.63-1.83-10.55-3.55-20.52-6.86-28.82-2.15-5.38-4.66-10.34-7.09-15.14-5.46-10.75-10.61-20.91-10.61-33.77,0-33.33,17.32-50.83,37.38-71.1,2.27-2.29,4.58-4.63,6.93-7.05,31.58-32.53,64.55-50.14,98-52.35l0,.54,0-.54c44.54-2.94,85.95,22.16,105.56,64A226.92,226.92,0,0,0,359,186.06c9.91,16.13,20.15,32.81,20.15,54.45,0,7.55-3.42,14.92-7,22.73-3,6.39-6,13-7.51,20.25-1.6,7.86-2.55,15.83-3.46,23.54-2.34,19.78-4.55,38.45-17.54,49.3-10.72,8.93-26.88,8.46-42.51,8-10.78-.31-21.92-.64-31.09,2.14-5,1.51-8.61,4-12.1,6.38C252.92,376.28,248.2,379.52,240.14,379.52Zm-59.59-17.14a110.75,110.75,0,0,1,16.16,1c6.5,1,13.52,4.29,20.31,7.51,7.87,3.73,16,7.59,23.12,7.59,7.72,0,12.31-3.15,17.16-6.48,3.56-2.44,7.23-5,12.4-6.53,9.34-2.82,20.57-2.49,31.43-2.18,15.43.46,31.39.92,41.78-7.75,12.67-10.57,14.85-29,17.17-48.6.91-7.73,1.86-15.73,3.47-23.62,1.5-7.38,4.59-14,7.58-20.5,3.57-7.69,6.95-15,6.95-22.27,0-21.33-10.16-37.88-20-53.88a228.91,228.91,0,0,1-12.43-22.06c-19.41-41.38-60.44-66.23-104.51-63.33-33.17,2.19-65.91,19.7-97.3,52-2.34,2.41-4.66,4.76-6.93,7-20.71,20.93-37.07,37.45-37.07,70.34,0,12.6,5.1,22.65,10.49,33.28,2.44,4.82,5,9.81,7.13,15.23,3.35,8.4,5.09,18.42,6.93,29,3.07,17.73,6.25,36.07,17.55,46,9.54,8.4,20.93,8.3,34.1,8.2Q178.28,362.38,180.55,362.38Z"/><path class="cls-1" d="M240.14,376.6c-7.68,0-16.07-3.42-24.18-6.73-6-2.44-12.17-5-17.88-6s-11.46-1.53-16.93-2c-13.07-1.13-25.42-2.2-35.56-11-12.3-10.69-16.9-29.07-21.35-46.85-2.12-8.49-4.13-16.52-6.92-23.71-1.65-4.26-3.47-8.33-5.24-12.27-5-11.24-9.8-21.87-9.8-34.91,0-36.28,19.08-56.38,41.17-79.65,20.5-21.6,54-47.81,97.4-50.06h0a110.74,110.74,0,0,1,61,14.85A114.6,114.6,0,0,1,346,164.74c2.85,5.49,6,10.93,9.11,16.2,10.41,17.83,21.18,36.26,21.18,59.57,0,7.93-3.06,15.63-6.31,23.77A116.94,116.94,0,0,0,364,282c-1.27,5.66-2.31,11.39-3.32,16.93-3.73,20.41-7.24,39.69-20.94,51.49-11.1,9.56-27.27,10.72-42.9,11.85-9.2.66-18.71,1.34-27.05,3.73a56,56,0,0,0-11.44,5C253,373.89,247.91,376.6,240.14,376.6Zm.76-272.11c-43,2.23-76.3,28.27-96.66,49.72-21.93,23.11-40.88,43.07-40.88,78.91,0,12.81,4.72,23.33,9.71,34.47,1.77,4,3.6,8,5.26,12.32,2.82,7.25,4.83,15.31,7,23.84,4.41,17.61,9,35.82,21,46.3,9.87,8.57,21.49,9.57,34.95,10.74,5.49.47,11.16,1,17,2s12.06,3.6,18.1,6.06c8,3.27,16.3,6.65,23.77,6.65s12.44-2.65,17.66-5.46A57.2,57.2,0,0,1,269.46,365c8.44-2.42,18-3.11,27.27-3.77,15.46-1.11,31.45-2.26,42.27-11.59,13.41-11.55,16.89-30.65,20.58-50.86,1-5.55,2.06-11.29,3.33-17a117.57,117.57,0,0,1,6-17.87c3.2-8,6.23-15.65,6.23-23.37,0-23-10.69-41.32-21-59-3.09-5.27-6.27-10.73-9.14-16.24a113.54,113.54,0,0,0-43.71-46.05,109.66,109.66,0,0,0-60.38-14.7Z"/><path class="cls-1" d="M240.14,373.69c-8.37,0-17.2-3-25.74-5.91a137.93,137.93,0,0,0-14.8-4.45c-3.89-.85-7.74-1.56-11.46-2.24-14-2.58-27.26-5-38.19-14.39-13.88-11.91-20.24-31.27-26.39-50-1.8-5.48-3.5-10.66-5.38-15.67-1-2.57-2-5.08-2.93-7.56-4.87-12.36-9.46-24-9.46-37.9,0-33.3,15.21-56.53,38-81.16,27.43-29.58,61.8-46.54,96.78-47.76h0a116.53,116.53,0,0,1,104.65,58.71l3.23,5.56c12.21,21,24.83,42.63,24.83,69.58,0,8.71-2.79,17.08-5.74,25.95-1.52,4.54-3.08,9.24-4.26,14q-.81,3.28-1.59,6.56c-5.42,22.53-10.55,43.8-25.92,57.45-12.11,10.82-29.24,13.85-45.81,16.78-6.83,1.21-13.9,2.45-20.49,4.23a93,93,0,0,0-10.2,3.59C253.4,371.46,247.82,373.69,240.14,373.69Zm.51-265.95c-34.7,1.21-68.8,18.05-96,47.42-31.34,33.8-37.76,56.59-37.76,80.42,0,13.67,4.56,25.24,9.38,37.5,1,2.49,2,5,2.94,7.58,1.9,5,3.6,10.22,5.4,15.71,6.1,18.58,12.41,37.8,26.07,49.51,10.7,9.18,23.8,11.59,37.68,14.14,3.73.69,7.58,1.4,11.49,2.25a143,143,0,0,1,14.92,4.48c8.45,2.88,17.2,5.85,25.39,5.85,7.48,0,13-2.19,18.77-4.5a91,91,0,0,1,10.32-3.63c6.63-1.79,13.72-3.05,20.58-4.26,16.42-2.9,33.39-5.9,45.28-16.52,15.12-13.42,20.2-34.54,25.59-56.89q.78-3.27,1.59-6.57c1.19-4.83,2.76-9.55,4.28-14.11,2.93-8.79,5.69-17.08,5.69-25.61,0-26.66-12.55-48.2-24.68-69-1.09-1.86-2.17-3.71-3.24-5.57a115.49,115.49,0,0,0-103.67-58.17Z"/><path class="cls-1" d="M240.14,370.77c-10.42,0-21-3-31.15-5.83-2.72-.76-5.29-1.49-7.87-2.16-16.27-4.23-33.09-8.61-46.81-20.24-17.55-14.81-27-38.14-35.28-60.77-5.13-14.12-9.74-28.09-9.74-43.73,0-30.17,11.1-56.43,34.92-82.66,25.84-28.68,60-44.83,96.17-45.47h0A120.7,120.7,0,0,1,344.57,166c22.9,35.73,25.83,58.59,25.83,74.51,0,10.94-3,21.76-6,32.23-.58,2.07-1.17,4.16-1.73,6.25-5.66,20.68-13.74,43.94-30.76,59.6-16,14.73-38.27,20.32-59.83,25.74l-2.83.71c-2.29.58-4.52,1.2-6.66,1.8C255.36,368.86,248.52,370.77,240.14,370.77ZM240.4,111c-35.87.63-69.75,16.64-95.39,45.1-23.63,26-34.63,52.06-34.63,81.94,0,15.46,4.57,29.33,9.67,43.36,8.18,22.49,17.61,45.68,35,60.32,13.53,11.46,30.23,15.81,46.38,20,2.59.67,5.17,1.39,7.9,2.16,10.11,2.84,20.57,5.78,30.85,5.78,8.23,0,15-1.89,22.16-3.88,2.16-.61,4.39-1.23,6.7-1.81l2.83-.71c21.43-5.38,43.59-10.95,59.35-25.49C348,322.32,356,299.24,361.63,278.7c.57-2.09,1.16-4.18,1.74-6.26,2.93-10.39,5.95-21.14,5.95-31.93,0-30-13.71-55.28-25.66-73.93A119.67,119.67,0,0,0,240.4,111Z"/><path class="cls-1" d="M240.14,367.85A127.34,127.34,0,1,1,367.49,240.51,127.49,127.49,0,0,1,240.14,367.85Zm0-253.6A126.26,126.26,0,1,0,366.4,240.51,126.4,126.4,0,0,0,240.14,114.25Z"/><circle class="cls-2" cx="0.05" cy="0.05" r="0.05"/><circle class="cls-2" cx="480.24" cy="0.05" r="0.05"/><circle class="cls-2" cx="480.24" cy="480.24" r="0.05"/><circle class="cls-2" cx="0.05" cy="480.24" r="0.05"/></g></g></svg>